<svg width="188" height="60" viewBox="0 0 188 60" fill="none" xmlns="http://www.w3.org/2000/svg">
<g clip-path="url(#clip0_7_47)">
<mask id="mask0_7_47" style="mask-type:luminance" maskUnits="userSpaceOnUse" x="0" y="0" width="188" height="60">
<path d="M187.5 0H0.5V60H187.5V0Z" fill="white"/>
</mask>
<g mask="url(#mask0_7_47)">
<path d="M78.292 18.2495V41.7522H74.1366V23.309H74.0813L66.6566 41.7522H63.8863L56.2955 23.309H56.2401V41.7522H52.417V18.2495H58.4012L65.2714 35.6589H65.3822L72.6408 18.2495H78.292ZM81.7275 20.0445C81.7275 19.3913 81.949 18.8476 82.4481 18.4126C82.9465 17.9776 83.5009 17.7594 84.1655 17.7594C84.8861 17.7594 85.4952 17.9769 85.9382 18.4126C86.3813 18.8483 86.6588 19.392 86.6588 20.0445C86.6588 20.697 86.4373 21.2414 85.9382 21.6764C85.4398 22.1114 84.8854 22.3296 84.1655 22.3296C83.4456 22.3296 82.8911 22.1121 82.4481 21.6764C82.0051 21.1871 81.7275 20.6426 81.7275 20.0445ZM86.2151 24.8866V41.7515H82.1705V24.8866H86.2151ZM98.4604 38.8683C99.0696 38.8683 99.7348 38.7596 100.455 38.4333C101.176 38.1615 101.841 37.7802 102.45 37.3452V41.0447C101.785 41.4253 101.065 41.6978 100.234 41.861C99.4025 42.0241 98.5165 42.1328 97.519 42.1328C94.9703 42.1328 92.9199 41.3709 91.3687 39.7934C89.762 38.2158 88.9861 36.2026 88.9861 33.8088C88.9861 31.0887 89.8174 28.858 91.424 27.1173C93.0307 25.3766 95.3025 24.5059 98.2943 24.5059C99.0703 24.5059 99.8455 24.6147 100.566 24.7778C101.342 24.9409 101.951 25.2128 102.394 25.431V29.2393C101.785 28.8043 101.12 28.423 100.511 28.2055C99.8455 27.988 99.181 27.8248 98.5158 27.8248C96.9092 27.8248 95.6348 28.3142 94.6373 29.348C93.6398 30.3818 93.1968 31.7418 93.1968 33.4825C93.1968 35.1688 93.6952 36.5289 94.6373 37.4539C95.5794 38.379 96.8538 38.8683 98.4604 38.8683ZM113.919 24.6147C114.251 24.6147 114.528 24.6147 114.806 24.6691C115.083 24.7234 115.304 24.7778 115.471 24.8322V28.858C115.249 28.6948 114.973 28.5317 114.529 28.423C114.085 28.3142 113.642 28.2055 113.033 28.2055C112.035 28.2055 111.205 28.6405 110.54 29.4568C109.874 30.273 109.487 31.5243 109.487 33.265V41.7522H105.442V24.8872H109.487V27.553H109.542C109.93 26.6279 110.484 25.921 111.204 25.3766C111.98 24.8872 112.866 24.6147 113.919 24.6147ZM115.692 33.5913C115.692 30.8168 116.523 28.5861 118.074 26.9542C119.681 25.3222 121.897 24.5059 124.723 24.5059C127.383 24.5059 129.488 25.2679 130.984 26.8454C132.48 28.423 133.256 30.5449 133.256 33.2106C133.256 35.9307 132.425 38.1071 130.873 39.739C129.267 41.3709 127.106 42.1872 124.335 42.1872C121.676 42.1872 119.57 41.4253 118.019 39.9021C116.468 38.3246 115.692 36.2026 115.692 33.5913ZM119.903 33.4281C119.903 35.1688 120.291 36.5289 121.122 37.4539C121.954 38.379 123.117 38.8683 124.613 38.8683C126.054 38.8683 127.217 38.4333 127.993 37.4539C128.769 36.5289 129.157 35.1688 129.157 33.3194C129.157 31.5243 128.769 30.1636 127.993 29.1849C127.217 28.2598 126.054 27.7705 124.668 27.7705C123.173 27.7705 122.064 28.2598 121.233 29.2393C120.291 30.2731 119.903 31.6331 119.903 33.4281ZM139.296 29.3473C139.296 29.8911 139.462 30.3811 139.849 30.7074C140.237 31.0336 141.013 31.4149 142.287 31.9043C143.894 32.5575 145.058 33.2643 145.667 34.0263C146.333 34.8426 146.665 35.7669 146.665 36.9095C146.665 38.487 146.056 39.7383 144.781 40.7177C143.562 41.6972 141.845 42.1322 139.739 42.1322C139.019 42.1322 138.243 42.0234 137.357 41.8603C136.47 41.6972 135.75 41.4797 135.14 41.2071V37.2901C135.861 37.7795 136.691 38.2152 137.523 38.487C138.354 38.7589 139.129 38.922 139.85 38.922C140.737 38.922 141.457 38.8133 141.845 38.5414C142.288 38.2695 142.51 37.8882 142.51 37.2901C142.51 36.7464 142.289 36.3107 141.845 35.8757C141.402 35.4951 140.515 35.0594 139.296 34.57C137.8 33.9719 136.748 33.2643 136.138 32.5024C135.529 31.7405 135.196 30.7618 135.196 29.5648C135.196 28.0417 135.805 26.7904 137.024 25.8109C138.243 24.8315 139.85 24.3421 141.79 24.3421C142.399 24.3421 143.064 24.3965 143.785 24.5596C144.505 24.7228 145.17 24.8859 145.668 25.049V28.9117C145.114 28.5854 144.505 28.2585 143.785 27.9866C143.065 27.7147 142.344 27.606 141.679 27.606C140.903 27.606 140.294 27.7691 139.906 28.041C139.518 28.4216 139.297 28.8029 139.297 29.3467L139.296 29.3473ZM148.382 33.5913C148.382 30.8168 149.214 28.5861 150.765 26.9542C152.372 25.3222 154.588 24.5059 157.414 24.5059C160.073 24.5059 162.179 25.2679 163.675 26.8454C165.171 28.423 165.947 30.5449 165.947 33.2106C165.947 35.9307 165.115 38.1071 163.564 39.739C161.957 41.3709 159.796 42.1872 157.026 42.1872C154.367 42.1872 152.261 41.4253 150.71 39.9021C149.214 38.3246 148.382 36.2026 148.382 33.5913ZM152.593 33.4281C152.593 35.1688 152.981 36.5289 153.812 37.4539C154.643 38.379 155.807 38.8683 157.303 38.8683C158.743 38.8683 159.907 38.4333 160.683 37.4539C161.459 36.5289 161.847 35.1688 161.847 33.3194C161.847 31.5243 161.459 30.1636 160.683 29.1849C159.907 28.2598 158.743 27.7705 157.358 27.7705C155.862 27.7705 154.754 28.2598 153.923 29.2393C153.036 30.2731 152.593 31.6331 152.593 33.4281ZM179.41 28.1511H173.371V41.7522H169.271V28.1511H166.39V24.8866H169.271V22.5471C169.271 20.8064 169.88 19.337 171.043 18.1951C172.207 17.0532 173.703 16.5088 175.532 16.5088C176.03 16.5088 176.474 16.5632 176.861 16.5632C177.249 16.5632 177.582 16.6719 177.859 16.7807V20.2083C177.748 20.1539 177.471 20.0452 177.138 19.9364C176.806 19.8277 176.418 19.7733 175.975 19.7733C175.143 19.7733 174.479 20.0452 174.035 20.5352C173.591 21.0253 173.37 21.8409 173.37 22.8203V24.8335H179.41V21.0253L183.454 19.8283V24.8335H187.554V28.098H183.454V35.9865C183.454 37.0202 183.676 37.7271 184.008 38.1628C184.396 38.5978 185.005 38.816 185.836 38.816C186.058 38.816 186.334 38.7616 186.667 38.6528C187 38.5441 187.277 38.4353 187.499 38.2722V41.5367C187.222 41.6999 186.834 41.8086 186.224 41.9174C185.615 42.0261 185.061 42.0805 184.452 42.0805C182.734 42.0805 181.46 41.6455 180.629 40.7748C179.797 39.9041 179.354 38.5441 179.354 36.749L179.41 28.1531V28.1511Z" fill="white"/>
<path d="M0.5 10.415H19.4494V29.0214H0.5V10.415Z" fill="white"/>
<path d="M21.4438 10.415H40.3933V29.0214H21.4438V10.415Z" fill="white"/>
<path d="M0.5 30.9798H19.4494V49.5861H0.5V30.9798Z" fill="white"/>
<path d="M21.4438 30.9798H40.3933V49.5861H21.4438V30.9798Z" fill="white"/>
</g>
</g>
<defs>
<clipPath id="clip0_7_47">
<rect width="187" height="60" fill="white" transform="translate(0.5)"/>
</clipPath>
</defs>
</svg>
