<svg width="193" height="60" viewBox="0 0 193 60" fill="none" xmlns="http://www.w3.org/2000/svg">
<g clip-path="url(#clip0_7_76)">
<mask id="mask0_7_76" style="mask-type:luminance" maskUnits="userSpaceOnUse" x="0" y="0" width="193" height="60">
<path d="M192.5 0H0.5V60H192.5V0Z" fill="white"/>
</mask>
<g mask="url(#mask0_7_76)">
<path d="M51.872 40.8233C50.2351 40.8233 48.6605 40.6024 47.1466 40.1619C45.6326 39.7213 44.3744 39.1111 43.3726 38.3311L44.9069 34.9162C46.9935 36.372 49.3352 37.1009 51.9339 37.1009C53.2839 37.1009 54.3224 36.88 55.0488 36.4394C55.7751 35.9983 56.1383 35.3886 56.1383 34.6086C56.1383 33.9111 55.8057 33.3676 55.1412 32.9782C54.4767 32.5888 53.2947 32.209 51.5971 31.8401C49.6948 31.4507 48.1761 30.9788 47.0409 30.4251C45.9058 29.8714 45.0768 29.1895 44.5557 28.3788C44.0347 27.5681 43.7736 26.5691 43.7736 25.3792C43.7736 24.0666 44.1367 22.8978 44.8631 21.8722C45.5894 20.8467 46.6069 20.0414 47.9161 19.4576C49.2254 18.8732 50.7393 18.5807 52.4579 18.5807C53.9923 18.5807 55.4702 18.8064 56.8917 19.2578C58.3131 19.7086 59.4435 20.314 60.2827 21.073L58.7483 24.4879C56.7638 23.032 54.6772 22.3031 52.4885 22.3031C51.2405 22.3031 50.2585 22.5439 49.5429 23.026C48.8274 23.508 48.469 24.1695 48.469 25.0103C48.469 25.5026 48.6071 25.9076 48.8832 26.2254C49.1593 26.5432 49.6198 26.8255 50.2639 27.0716C50.908 27.3178 51.824 27.5742 53.0102 27.8408C55.7925 28.4559 57.7921 29.2455 59.0089 30.2097C60.2263 31.1738 60.835 32.5069 60.835 34.209C60.835 36.2601 60.0474 37.8755 58.4722 39.0545C56.8971 40.2335 54.6982 40.8233 51.875 40.8233H51.8738H51.872ZM71.9397 37.3777C72.4103 37.3777 72.9014 37.347 73.4122 37.285L73.1667 40.6693C72.5736 40.7517 71.9805 40.792 71.3868 40.792C69.0955 40.792 67.4237 40.2895 66.3696 39.2844C65.3161 38.2793 64.7891 36.7512 64.7891 34.7007V28.9175H61.9353V25.4412H64.7891V21.0116H69.4221V25.4412H73.1961V28.9175H69.4221V34.6706C69.4221 36.4756 70.2607 37.3777 71.9385 37.3777H71.9397ZM82.7095 40.7926C81.1139 40.7926 79.7128 40.47 78.5057 39.8231C77.2985 39.1761 76.368 38.2643 75.7131 37.0852C75.0582 35.9062 74.7316 34.5165 74.7316 32.9168C74.7316 31.3171 75.0588 29.9274 75.7131 28.7484C76.3674 27.5693 77.2985 26.6618 78.5057 26.0256C79.7128 25.3894 81.1139 25.0717 82.7095 25.0717C84.305 25.0717 85.7061 25.3894 86.9133 26.0256C88.1205 26.6618 89.0509 27.5687 89.7058 28.7484C90.3607 29.928 90.6873 31.3171 90.6873 32.9168C90.6873 34.5165 90.3601 35.9062 89.7058 37.0852C89.0515 38.2649 88.1205 39.1773 86.9133 39.8231C85.7067 40.4688 84.305 40.7926 82.7095 40.7926ZM82.7095 37.2549C84.9599 37.2549 86.0849 35.8087 86.0849 32.9168C86.0849 31.4609 85.7932 30.374 85.2103 29.6554C84.6274 28.9368 83.7936 28.5787 82.7095 28.5787C80.459 28.5787 79.334 30.0249 79.334 32.9168C79.334 35.8087 80.459 37.2549 82.7095 37.2549ZM103.514 28.8862L100.906 29.1631C99.6172 29.2858 98.7072 29.6505 98.1753 30.2554C97.6435 30.8603 97.3775 31.6656 97.3775 32.67V40.5459H92.7445V25.4406H97.1938V27.9937C97.9508 26.2507 99.5158 25.2968 101.888 25.1324L103.238 25.0398L103.514 28.885V28.8862ZM116.977 25.4719H121.519L112.436 46.0841H107.742L110.626 39.7159L104.429 25.4719H109.246L113.051 35.0702L116.979 25.4719H116.977ZM132.257 25.0717C133.567 25.0717 134.722 25.3894 135.725 26.0256C136.727 26.6618 137.509 27.5687 138.072 28.7484C138.634 29.928 138.916 31.2966 138.916 32.8554C138.916 34.4142 138.634 35.7937 138.072 36.9931C137.509 38.1926 136.722 39.1261 135.709 39.793C134.696 40.4592 133.546 40.7926 132.257 40.7926C131.213 40.7926 130.272 40.5718 129.434 40.1312C128.595 39.6906 127.95 39.0804 127.501 38.3004V40.5465H122.929V18.8575H127.562V27.4718C128.011 26.7129 128.651 26.1231 129.48 25.703C130.308 25.2823 131.234 25.0717 132.257 25.0717ZM130.907 37.2549C131.991 37.2549 132.83 36.8704 133.424 36.1012C134.017 35.332 134.314 34.2499 134.314 32.8554C134.314 31.4808 134.017 30.4299 133.424 29.7023C132.831 28.9741 131.991 28.6099 130.907 28.6099C129.823 28.6099 128.985 28.9843 128.391 29.7324C127.797 30.4805 127.501 31.5422 127.501 32.9168C127.501 34.3113 127.797 35.3832 128.391 36.1313C128.985 36.8794 129.823 37.2537 130.907 37.2537V37.2549ZM148.981 40.7926C147.385 40.7926 145.983 40.47 144.777 39.8231C143.57 39.1761 142.639 38.2643 141.984 37.0852C141.33 35.9056 141.003 34.5165 141.003 32.9168C141.003 31.3171 141.33 29.9274 141.984 28.7484C142.639 27.5687 143.57 26.6618 144.777 26.0256C145.984 25.3894 147.385 25.0717 148.981 25.0717C150.576 25.0717 151.978 25.3894 153.185 26.0256C154.391 26.6618 155.322 27.5687 155.977 28.7484C156.631 29.928 156.959 31.3171 156.959 32.9168C156.959 34.5165 156.631 35.9062 155.977 37.0852C155.323 38.2649 154.392 39.1773 153.185 39.8231C151.977 40.4688 150.576 40.7926 148.981 40.7926ZM148.981 37.2549C151.231 37.2549 152.356 35.8087 152.356 32.9168C152.356 31.4609 152.064 30.374 151.482 29.6554C150.899 28.9368 150.065 28.5787 148.981 28.5787C146.73 28.5787 145.605 30.0249 145.605 32.9168C145.605 35.8087 146.73 37.2549 148.981 37.2549ZM166.256 40.7926C164.66 40.7926 163.259 40.47 162.052 39.8231C160.845 39.1773 159.914 38.2643 159.259 37.0852C158.605 35.9056 158.278 34.5165 158.278 32.9168C158.278 31.3171 158.605 29.9274 159.259 28.7484C159.914 27.5687 160.845 26.6618 162.052 26.0256C163.259 25.3894 164.66 25.0717 166.256 25.0717C167.851 25.0717 169.253 25.3894 170.46 26.0256C171.666 26.6618 172.597 27.5687 173.252 28.7484C173.907 29.928 174.234 31.3171 174.234 32.9168C174.234 34.5165 173.907 35.9062 173.252 37.0852C172.598 38.2649 171.667 39.1773 170.46 39.8231C169.252 40.4688 167.851 40.7926 166.256 40.7926ZM166.256 37.2549C168.506 37.2549 169.631 35.8087 169.631 32.9168C169.631 31.4609 169.34 30.374 168.757 29.6554C168.174 28.9368 167.34 28.5787 166.256 28.5787C164.005 28.5787 162.88 30.0249 162.88 32.9168C162.88 35.8087 164.005 37.2549 166.256 37.2549ZM192.56 40.5465H186.883L181.115 33.8093V40.5465H176.482V18.8575H181.115V31.9015L186.669 25.4719H192.192L185.871 32.6706L192.56 40.5465Z" fill="white"/>
<path d="M35.1862 10.3761C35.1112 9.17543 34.0799 8.26242 32.8817 8.33765L30.4962 8.48691L30.6703 13.4877C30.6763 13.667 30.5364 13.8175 30.3575 13.8235C30.2807 13.8265 30.2057 13.8019 30.1456 13.7543L28.5387 12.485L26.6363 13.9325C26.4941 14.0408 26.2906 14.0131 26.1819 13.8699C26.1363 13.8097 26.1135 13.7351 26.1159 13.6598L26.3194 8.74871L2.53715 10.2395C1.36058 10.3129 0.457149 11.3144 0.50157 12.4952L1.84081 48.2639C1.88343 49.3972 2.78507 50.3078 3.91481 50.3583L32.9208 51.6644C32.9532 51.6662 32.9856 51.6668 33.018 51.6668C34.2186 51.6668 35.191 50.6912 35.191 49.4881V10.5121C35.191 10.467 35.1886 10.4219 35.1862 10.3761ZM18.6603 43.4539C13.4852 43.4539 8.96204 41.3546 9.47288 34.0758C9.67338 33.2212 16.2531 33.424 16.2531 34.0758C16.1727 37.0797 16.8546 37.9626 18.5799 37.9626C19.9035 37.9626 20.5056 37.2307 20.5056 35.9988C20.5056 31.6088 9.67338 31.4554 9.67338 23.4074C9.67338 18.787 12.8429 15.7061 18.5 15.7061C24.1571 15.7061 27.2462 18.7395 27.2462 24.5112C26.4815 25.1064 20.7865 25.5127 20.7865 24.6653C20.9066 21.4309 19.4629 21.2895 18.6603 21.2895C17.8985 21.2895 16.6139 21.5206 16.6139 23.2533C16.6139 27.5277 27.607 27.2966 27.607 35.9217C27.607 40.7732 23.6751 43.4539 18.6603 43.4539Z" fill="white"/>
</g>
</g>
<defs>
<clipPath id="clip0_7_76">
<rect width="192" height="60" fill="white" transform="translate(0.5)"/>
</clipPath>
</defs>
</svg>
