<svg width="178" height="60" viewBox="0 0 178 60" fill="none" xmlns="http://www.w3.org/2000/svg">
<g clip-path="url(#clip0_7_60)">
<mask id="mask0_7_60" style="mask-type:luminance" maskUnits="userSpaceOnUse" x="0" y="0" width="178" height="60">
<path d="M178 0H0V60H178V0Z" fill="white"/>
</mask>
<g mask="url(#mask0_7_60)">
<path d="M27.5083 45.8348C26.209 47.4622 24.6465 47.5573 22.8527 46.3066H20.3939C18.5551 47.7673 17.0052 47.281 15.5815 45.9395C14.5873 47.2678 12.686 47.5994 12.334 47.6506C12.6386 49.7841 13.4615 51.095 13.4615 51.095L14.6035 48.755L15.5383 51.6667L16.6286 49.0144L17.8745 51.095L18.8092 48.2867H24.438C24.438 48.2867 25.2766 50.7242 25.586 51.0775L26.6451 48.7339L27.6159 51.6673C27.6159 51.6673 28.2785 50.1049 28.5867 48.7339L29.6908 51.0336C29.6908 51.0336 30.4819 49.8136 30.5438 47.5687C29.3826 47.3743 28.3578 46.8302 27.5083 45.8348Z" fill="white"/>
<path d="M40.5431 23.1623C42.1902 23.1623 43.1016 23.7239 43.1016 23.7239C41.9452 17.65 36.0815 12.5102 36.0815 12.5102C37.9155 10.8743 38.1155 8.33331 38.1155 8.33331C35.6069 9.80243 32.0133 10.2394 32.0133 10.2394C20.9618 6.13475 11.087 10.2394 11.087 10.2394C6.43318 9.81808 4.9596 8.33331 4.9596 8.33331C4.92776 11.038 7.04292 12.7991 7.04292 12.7991C1.37326 17.1077 0 23.7431 0 23.7431C0.815787 23.1768 2.76214 23.1142 2.76214 23.1142C0.564683 25.4728 0.470369 28.7433 0.470369 28.7433H3.70348C3.48361 31.8567 4.23693 34.7498 4.23693 34.7498C4.23693 33.7122 4.64542 33.1459 4.64542 33.1459C4.99024 39.2468 7.57757 41.9034 7.57757 41.9034C7.49587 41.006 7.71994 40.5577 7.71994 40.5577C9.0115 43.2503 11.4 45.0673 12.0572 45.5326C12.7943 44.4817 12.7048 43.6337 12.7048 43.6337C8.22515 40.1797 6.88793 35.1982 7.05734 29.4848L12.918 29.9566C12.8159 31.424 11.1897 32.7342 11.1897 32.7342C13.4911 33.4678 15.7402 32.3671 15.7402 32.3671C15.3215 34.2009 13.5956 35.3017 13.5956 35.3017C16.1067 36.0877 18.2513 34.4103 18.2513 34.4103L17.8326 37.0308L20.2914 33.8344L21.5721 39.1271L22.8541 33.5726L25.5219 36.8737L24.9986 34.4633C27.5097 36.2972 29.602 35.2493 29.602 35.2493C28.2948 34.358 27.5097 32.786 27.5097 32.786C30.4388 32.9954 31.9034 32.5765 31.9034 32.5765C30.8119 31.8651 29.7816 30.9286 28.8175 29.7466L36.5308 29.4848C36.0706 36.843 34.0943 41.8143 29.9162 43.3196C30.1739 44.0586 30.5235 44.684 30.8671 45.1877C34.0991 43.9756 35.4609 40.4927 35.4609 40.4927C35.7643 41.2113 35.7643 42.0123 35.7643 42.0123C37.8602 39.6639 38.4123 33.3354 38.4123 33.3354C38.7433 33.7218 39.1073 34.5024 39.1073 34.5024C39.4924 32.1149 39.4581 28.5345 39.4581 28.5345H42.5417C42.296 25.8665 40.5443 23.1629 40.5443 23.1629L40.5455 23.1617L40.5431 23.1623ZM11.7034 25.3152C5.09476 24.2114 5.84567 16.303 9.15027 13.7783L19.013 15.7343C19.9021 22.2626 16.5596 26.0175 11.7034 25.3152ZM23.9714 23.6492L22.0377 31.3854C21.9247 31.8356 21.288 31.8374 21.172 31.3885L19.1758 23.6535C18.7949 22.1771 19.7759 20.649 21.2886 20.4865C21.309 20.4841 21.3288 20.4823 21.3492 20.4805C23.0625 20.33 24.3889 21.9773 23.9714 23.6492ZM31.5039 25.3152C26.6476 26.0175 23.3058 22.2638 24.1943 15.7349L34.057 13.7789C37.3616 16.3036 38.1119 24.2114 31.5039 25.3152Z" fill="white"/>
<path d="M30.3279 22.5077C32.1945 22.5077 33.7076 20.9917 33.7076 19.1217C33.7076 17.2516 32.1945 15.7357 30.3279 15.7357C28.4614 15.7357 26.9482 17.2516 26.9482 19.1217C26.9482 20.9917 28.4614 22.5077 30.3279 22.5077Z" fill="white"/>
<path d="M12.7049 22.5077C14.5714 22.5077 16.0846 20.9917 16.0846 19.1217C16.0846 17.2516 14.5714 15.7357 12.7049 15.7357C10.8383 15.7357 9.3252 17.2516 9.3252 19.1217C9.3252 20.9917 10.8383 22.5077 12.7049 22.5077Z" fill="white"/>
<path d="M54.6828 40.789C50.5132 40.789 48.2646 38.6789 46.8169 34.6032L50.6664 33.3477C51.4179 36.0651 53.0747 36.6597 54.6828 36.6597C55.802 36.6597 56.6364 36.3955 57.186 35.864C57.7357 35.3338 58.0102 34.6104 58.0102 33.6926V18.9502H62.1925V33.6926C62.1925 35.9357 61.4909 37.6792 60.0864 38.9226C58.6825 40.1667 56.8809 40.789 54.6828 40.789Z" fill="white"/>
<path d="M68.9698 34.3335C69.4991 36.2504 70.9336 37.2085 73.2741 37.2085C74.7795 37.2085 75.9197 36.6987 76.6934 35.6792L79.8682 37.5148C78.3622 39.6972 76.1443 40.7871 73.2128 40.7871C70.6891 40.7871 68.6641 40.0228 67.1376 38.4929C65.6112 36.9642 64.8477 35.0364 64.8477 32.7121C64.8477 30.4082 65.6004 28.4865 67.107 26.9463C68.6124 25.4074 70.5456 24.637 72.907 24.637C75.1459 24.637 76.9926 25.4122 78.4481 26.962C79.9025 28.5111 80.6306 30.4286 80.6306 32.7121C80.6306 33.2218 80.5795 33.7623 80.478 34.3335H68.9686H68.9698ZM68.9092 31.2755H76.6934C76.4693 30.2355 76.0068 29.4609 75.3045 28.9511C74.6029 28.4413 73.8033 28.1861 72.9082 28.1861C71.8497 28.1861 70.9739 28.457 70.283 28.9968C69.591 29.5373 69.1332 30.2968 68.9092 31.2755Z" fill="white"/>
<path d="M86.402 29.4097C86.402 29.8184 86.6717 30.1494 87.2112 30.404C87.7506 30.6592 88.4066 30.8836 89.1803 31.0768C89.9535 31.2712 90.7266 31.5156 91.501 31.8111C92.2741 32.1072 92.9307 32.6013 93.4701 33.2947C94.009 33.988 94.2793 34.8547 94.2793 35.8947C94.2793 37.4649 93.6942 38.6734 92.524 39.519C91.3538 40.3646 89.8934 40.7877 88.1429 40.7877C85.0083 40.7877 82.8709 39.5744 81.7319 37.1477L85.1513 35.2212C85.5988 36.5465 86.596 37.2091 88.1435 37.2091C89.5474 37.2091 90.2502 36.771 90.2502 35.8935C90.2502 35.486 89.9799 35.155 89.4411 34.8992C88.9016 34.644 88.2456 34.4153 87.4719 34.2113C86.6981 34.0079 85.925 33.7521 85.1513 33.4463C84.3775 33.1406 83.7215 32.6561 83.1821 31.9935C82.6426 31.3314 82.3729 30.4997 82.3729 29.5006C82.3729 27.9923 82.9274 26.8043 84.0363 25.937C85.1453 25.071 86.5245 24.637 88.1729 24.637C89.414 24.637 90.544 24.9175 91.5616 25.4778C92.5793 26.0393 93.383 26.8392 93.9736 27.8792L90.6155 29.7148C90.1271 28.6748 89.3125 28.1548 88.1735 28.1548C87.6647 28.1548 87.2424 28.2674 86.9072 28.4913C86.5714 28.7158 86.4038 29.0215 86.4038 29.4085H86.4026L86.402 29.4097Z" fill="white"/>
<path d="M107.861 28.8572H102.96V35.2193C102.96 35.7496 103.112 36.4291 103.374 36.7216C103.642 37.0207 104.129 37.2422 104.638 37.2729C105.147 37.3035 106.469 37.1868 107.237 36.6072L108.978 39.868C106.087 41.4443 102.433 41.1795 100.686 39.593C99.3716 38.3995 99.022 37.3192 99.022 35.2193V28.8572H95.4976V25.0649H99.022V21.9756L102.96 20.7827V25.0649H107.862L107.861 28.8572Z" fill="white"/>
<path d="M124.409 18.9502C127.34 18.9502 129.787 19.98 131.752 22.0395C133.715 24.0996 134.697 26.6376 134.697 29.6553C134.697 32.673 133.715 35.2116 131.752 37.2712C129.787 39.3313 127.34 40.3605 124.409 40.3605H115.922V18.9502H124.409ZM124.409 36.3233C126.261 36.3233 127.767 35.707 128.928 34.4732C130.088 33.2394 130.668 31.6336 130.668 29.6559C130.668 27.6783 130.088 26.0731 128.928 24.8387C127.767 23.6049 126.261 22.988 124.409 22.988H120.135V36.3233H124.409Z" fill="white"/>
<path d="M150.511 38.4459C148.944 40.0059 147.031 40.7859 144.772 40.7859C142.512 40.7859 140.605 40.0059 139.048 38.4459C137.491 36.8859 136.712 34.975 136.712 32.7115C136.712 30.4479 137.491 28.5364 139.048 26.977C140.605 25.417 142.512 24.637 144.772 24.637C147.031 24.637 148.944 25.417 150.511 26.977C152.078 28.537 152.862 30.4479 152.862 32.7115C152.862 34.975 152.078 36.8865 150.511 38.4459ZM141.826 35.7394C142.609 36.535 143.591 36.9323 144.772 36.9323C145.952 36.9323 146.939 36.5344 147.733 35.7394C148.526 34.9443 148.923 33.935 148.923 32.7115C148.923 31.4879 148.526 30.4786 147.733 29.6836C146.939 28.8885 145.952 28.4907 144.772 28.4907C143.592 28.4907 142.609 28.8885 141.826 29.6836C141.042 30.4792 140.65 31.4879 140.65 32.7115C140.65 33.935 141.042 34.9443 141.826 35.7394Z" fill="white"/>
<path d="M172.522 24.637C174.272 24.637 175.671 25.2082 176.72 26.3499C177.767 27.4916 178.292 29.0209 178.292 30.9378V40.358H174.354V31.2129C174.354 30.2956 174.13 29.5818 173.682 29.0721C173.235 28.5623 172.603 28.3077 171.789 28.3077C170.893 28.3077 170.196 28.6032 169.698 29.1942C169.199 29.7859 168.95 30.6423 168.95 31.7636V40.358H165.012V31.2129C165.012 30.2956 164.788 29.5818 164.34 29.0721C163.893 28.5623 163.262 28.3077 162.448 28.3077C161.572 28.3077 160.875 28.6032 160.356 29.1942C159.837 29.7859 159.578 30.6423 159.578 31.7636V40.358H155.64V25.0649H159.578V26.6863C160.494 25.3207 161.908 24.637 163.821 24.637C165.694 24.637 167.077 25.3713 167.974 26.8392C168.991 25.3713 170.508 24.637 172.522 24.637Z" fill="white"/>
</g>
</g>
<defs>
<clipPath id="clip0_7_60">
<rect width="178" height="60" fill="white"/>
</clipPath>
</defs>
</svg>
