<svg width="136" height="60" viewBox="0 0 136 60" fill="none" xmlns="http://www.w3.org/2000/svg">
<g clip-path="url(#clip0_7_57)">
<path d="M24.6667 5.83331C38.0097 5.83331 48.8333 16.657 48.8333 30C48.8333 43.343 38.0097 54.1666 24.6667 54.1666C11.3237 54.1666 0.5 43.343 0.5 30C0.5 16.657 11.3237 5.83331 24.6667 5.83331ZM41.1075 37.3246C40.9395 35.9997 39.8198 35.0852 38.3829 35.1039C36.2368 35.1319 34.436 36.2423 33.2416 36.9794C32.7751 37.2686 32.3739 37.4832 32.0286 37.6419C32.1033 36.5595 32.038 35.1412 31.4781 33.583C30.797 31.7168 29.8826 30.5692 29.2294 29.9067C29.9852 28.8056 31.0209 27.2008 31.5061 24.7188C31.926 22.6007 31.7954 19.3069 30.8343 17.4594C30.6384 17.0862 30.3118 16.8156 29.9012 16.7036C29.7333 16.657 29.416 16.5637 28.7909 16.741C27.8485 14.7908 27.5219 14.5856 27.2699 14.4176C26.7474 14.0817 26.1316 14.0071 25.5531 14.2217C24.7786 14.5016 24.1162 15.248 23.491 16.573C23.3977 16.769 23.3137 16.9556 23.2391 17.1422C22.0541 17.2262 20.1879 17.6554 18.611 19.3629C18.4151 19.5775 18.0325 19.7361 17.6313 19.8854H17.6406C16.8195 20.1747 16.4463 20.8465 15.9891 22.0595C15.3546 23.7577 16.0077 25.4279 16.6515 26.5103C15.7745 27.2941 14.6081 28.5444 13.9923 30.0093C13.2272 31.8195 13.1432 33.5923 13.1712 34.5534C12.518 35.2439 11.5103 36.5408 11.3983 37.9964C11.249 40.0305 11.9862 41.4115 12.3127 41.9154C12.406 42.0647 12.5087 42.186 12.6207 42.3072C12.5833 42.5592 12.574 42.8298 12.63 43.1097C12.7513 43.7628 13.1618 44.2947 13.787 44.6306C15.0187 45.2838 16.7355 45.5637 18.0605 44.9012C18.5364 45.4051 19.4041 45.8903 20.981 45.8903H21.0743C21.4755 45.8903 26.5701 45.6197 28.0537 45.2558C28.7162 45.0971 29.1734 44.8172 29.472 44.5653C30.4237 44.2667 33.055 43.371 35.537 41.7661C37.2912 40.6277 37.8977 40.3851 39.204 40.0679C40.473 39.76 41.2661 38.6029 41.1075 37.3246ZM38.8867 38.6962C37.3938 39.0508 36.638 39.3774 34.7905 40.5811C31.9073 42.4472 28.7535 43.315 28.7535 43.315C28.7535 43.315 28.4923 43.7069 27.7365 43.8841C26.4302 44.2014 21.5129 44.472 21.065 44.4813C19.8613 44.4906 19.1242 44.1734 18.9189 43.6789C18.2938 42.186 19.8147 41.5328 19.8147 41.5328C19.8147 41.5328 19.4788 41.3275 19.2828 41.1409C19.1055 40.9636 18.9189 40.6091 18.8629 40.7397C18.6297 41.3089 18.5084 42.6991 17.8832 43.3243C17.0248 44.1921 15.4012 43.9028 14.4402 43.3989C13.3858 42.8391 14.5148 41.5235 14.5148 41.5235C14.5148 41.5235 13.9456 41.8594 13.4884 41.1689C13.0779 40.5344 12.6953 39.452 12.7979 38.1177C12.9099 36.5968 14.6081 35.1226 14.6081 35.1226C14.6081 35.1226 14.3095 32.8739 15.2893 30.5692C16.1757 28.4697 18.5643 26.7809 18.5643 26.7809C18.5643 26.7809 16.5582 24.5601 17.3047 22.5634C17.7899 21.2571 17.9858 21.2664 18.1445 21.2104C18.7043 20.9958 19.2455 20.7625 19.6467 20.324C21.6528 18.1592 24.2095 18.5698 24.2095 18.5698C24.2095 18.5698 25.4225 14.8841 26.5421 15.6026C26.8874 15.8266 28.1284 18.5885 28.1284 18.5885C28.1284 18.5885 29.4533 17.814 29.6026 18.1033C30.4051 19.6615 30.4984 22.638 30.1438 24.4482C29.5467 27.434 28.0537 29.0389 27.4566 30.0466C27.3166 30.2799 29.0615 31.017 30.1625 34.0682C31.1795 36.8581 30.2745 39.2001 30.4331 39.4614C30.4611 39.508 30.4704 39.5267 30.4704 39.5267C30.4704 39.5267 31.6367 39.62 33.9788 38.1737C35.2291 37.3993 36.7127 36.5315 38.4015 36.5128C40.0344 36.4849 40.1184 38.3977 38.8867 38.6962Z" fill="white"/>
<path d="M100 16.667C101.194 16.6671 102.587 17.2608 103.135 19.2891C104.777 19.487 105.275 19.4863 105.772 19.4863H108.36C108.958 19.4866 110.947 21.119 110.749 22.2568C110.749 22.8505 108.51 28.6893 108.51 33.6367C108.51 35.0218 109.157 36.3076 110.5 36.3076C112.789 36.3076 113.635 33.1417 114.083 30.9648C114.132 30.707 114.201 30.4858 114.282 30.2988V21.7129C114.282 20.773 114.083 20.4761 114.083 20.1299C114.083 19.6352 114.68 19.2891 115.377 19.2891C117.019 19.2891 118.064 20.2784 118.064 21.4658V23.6924C119.408 20.9219 121.199 18.7941 123.638 18.7939C126.972 18.7939 127.769 21.5152 127.769 23.791V34.0322C127.769 34.4778 127.769 36.3076 129.062 36.3076C131.053 36.3074 132.073 33.1416 132.521 30.9648C132.72 29.9262 133.217 29.4807 133.715 29.4805C134.511 29.4805 135.457 30.5688 135.457 31.5088C135.457 31.5583 135.457 31.6576 135.407 31.8555C134.561 35.1206 132.446 39.5729 128.167 39.5732C125.53 39.5732 123.986 37.4459 123.986 34.9229V24.8789C123.986 23.3454 123.887 22.0597 122.941 22.0596C121.498 22.0596 118.413 26.3142 118.064 30.2227V37.4453C118.064 38.3853 118.114 39.5732 116.671 39.5732C115.682 39.5732 114.3 39.2313 114.282 37.4316C113.191 38.6936 111.754 39.5731 109.854 39.5732C107.515 39.5732 104.728 38.287 104.728 33.9336C104.728 30.7672 105.623 27.2538 107.216 22.999H102.886C102.836 24.9285 102.537 29.233 101.642 32.1025C101.619 32.1739 101.594 32.2403 101.567 32.3027C100.659 35.5121 98.662 39.5732 94.5752 39.5732C92.8335 39.5732 91.4896 38.7323 90.7432 37.5449C89.7479 38.6827 88.3547 39.5732 86.4639 39.5732C84.4058 39.5732 82.8652 38.6553 81.8721 37.166C80.3492 39.7475 78.5389 41.4909 76.8096 42.9873V51.5459C76.8096 56.7407 74.1718 58.5713 71.6338 58.5713C68.8471 58.5712 66.8565 56.0481 66.8564 52.8818C66.8564 47.8849 69.7429 45.3617 73.0273 42.4922V36.209C71.833 38.1879 70.2903 39.623 68.1504 39.623C64.8162 39.623 63 36.8023 63 32.498C63.0001 27.2539 64.667 21.3662 64.667 21.3662C65.0151 20.5252 64.6676 19.5361 67.3047 19.5361C69.7424 19.5363 68.3 21.5145 68.1006 22.2568C67.2048 25.9179 66.6572 28.0952 66.6572 32.251C66.6572 34.9224 67.5033 36.3572 68.9463 36.3574C70.9368 36.3574 72.4301 33.1418 73.0273 29.6787V21.7129C73.0273 20.773 72.8282 20.4762 72.8281 20.1299C72.8281 19.6352 73.4254 19.2891 74.1221 19.2891C75.7643 19.2891 76.8096 20.2784 76.8096 21.4658V38.8311C78.2622 37.2265 79.5829 35.2962 80.5615 32.8037C80.5486 32.5732 80.542 32.3394 80.542 32.1025C80.542 23.8403 86.3145 18.794 92.3857 18.7939C93.7294 18.7939 94.6748 19.5857 94.6748 20.8721C94.6748 21.7128 94.5257 22.0096 94.0283 22.0098C93.5805 22.0098 93.0826 21.9111 92.585 21.9111C88.8029 21.9111 84.374 25.1267 84.374 32.251C84.374 34.8235 85.4684 36.3074 87.21 36.3076C88.5536 36.3076 89.4497 35.1206 89.9971 33.7354V26.1162C89.9971 25.1764 89.7979 24.8794 89.7979 24.5332C89.7979 24.0385 90.3951 23.6924 91.0918 23.6924C92.734 23.6924 93.7793 24.6818 93.7793 25.8691V34.0322C93.7794 35.1205 94.2768 36.3073 95.4707 36.3076C97.4612 36.3076 98.3578 33.1417 98.8057 30.9648C98.81 30.9421 98.8147 30.9196 98.8193 30.8975C98.8278 30.8376 98.8396 30.7776 98.8555 30.7178C99.4029 28.7388 99.6016 24.6316 99.6514 22.1084C98.4074 21.4158 97.5117 20.3771 97.5117 18.9424C97.5118 17.5572 98.7062 16.667 100 16.667ZM73.0273 46.252C71.4349 47.8846 70.3398 49.7649 70.3398 52.7334C70.3399 54.267 70.8377 55.4539 71.6338 55.4541C73.2263 55.4541 73.0273 52.4859 73.0273 51.5459V46.252Z" fill="white"/>
</g>
<defs>
<clipPath id="clip0_7_57">
<rect width="135" height="60" fill="white" transform="translate(0.5)"/>
</clipPath>
</defs>
</svg>
